<svg id="bf007170-76ca-4e8a-88e6-60462d411c14" data-name="Layer 1" xmlns="http://www.w3.org/2000/svg" xmlns:xlink="http://www.w3.org/1999/xlink" viewBox="0 0 167.9 167.9"><defs><style>.a126b621-b0fd-4d36-a3ae-2f4575b9ff85{fill:#010101;}.ae3e9912-e68e-4214-a092-0d66c24ecf23{opacity:0.1;fill:url(#fbd000aa-4442-41d2-9582-2af2c95e3e5e);}.ab790726-2c80-46d0-81d6-792e8ddf26ff{fill:#fccb13;}.aaa6a82b-bb76-4aee-b7b5-ac0895ad6bdd{fill:#fff;}</style><linearGradient id="fbd000aa-4442-41d2-9582-2af2c95e3e5e" x1="37.83" y1="94.53" x2="168.49" y2="94.53" gradientUnits="userSpaceOnUse"><stop offset="0" stop-color="#231f20"/><stop offset="0.5" stop-color="#9aa39e"/><stop offset="0.85" stop-color="#fff"/><stop offset="1" stop-color="#9aa39e"/></linearGradient></defs><title>taxiApp_logo</title><path class="a126b621-b0fd-4d36-a3ae-2f4575b9ff85" d="M168.49,84.54A84,84,0,1,1,84.54.59,83.95,83.95,0,0,1,168.49,84.54Z" transform="translate(-0.59 -0.59)"/><path class="ae3e9912-e68e-4214-a092-0d66c24ecf23" d="M138.87,20.56,37.83,154.3a83.94,83.94,0,0,0,101-133.74Z" transform="translate(-0.59 -0.59)"/><path class="ab790726-2c80-46d0-81d6-792e8ddf26ff" d="M84.54,160.15h-1.1a.75.75,0,0,1-.75-.77.72.72,0,0,1,.77-.75h1.39a.76.76,0,0,1,0,1.52Zm4.68-.15a.76.76,0,0,1-.76-.71.75.75,0,0,1,.71-.8l1.08-.08a.75.75,0,0,1,.81.7.76.76,0,0,1-.7.82l-1.1.07ZM79.08,160h0l-1.1-.09a.76.76,0,1,1,.13-1.51l1.08.09a.76.76,0,0,1-.06,1.51Zm15.57-.48a.76.76,0,0,1-.75-.66.75.75,0,0,1,.65-.85l1.07-.15a.76.76,0,0,1,.23,1.5l-1.1.15Zm-21-.11h-.11l-1.09-.17a.75.75,0,1,1,.24-1.49l1.07.16a.76.76,0,0,1-.11,1.51Zm26.38-.82a.77.77,0,0,1-.74-.6.76.76,0,0,1,.59-.9l1.05-.24a.77.77,0,0,1,.91.58.75.75,0,0,1-.57.9l-1.08.24Zm-31.75-.17a.5.5,0,0,1-.17,0L67,158.11a.76.76,0,1,1,.35-1.48l1,.24a.76.76,0,0,1-.16,1.5Zm37.05-1.16a.76.76,0,0,1-.73-.55.77.77,0,0,1,.52-.94l1-.3a.76.76,0,0,1,1,.5.77.77,0,0,1-.51,1l-1.06.31ZM63,157l-.21,0-1.06-.33a.76.76,0,0,1-.5-.95.77.77,0,0,1,1-.5l1,.32a.77.77,0,0,1,.51.95A.76.76,0,0,1,63,157Zm47.53-1.49a.76.76,0,0,1-.26-1.47l1-.38a.76.76,0,0,1,.55,1.41l-1,.39A.65.65,0,0,1,110.52,155.5Zm-52.71-.28a.86.86,0,0,1-.27-.05l-1-.41a.74.74,0,0,1-.42-1,.76.76,0,0,1,1-.43l1,.4a.75.75,0,0,1,.44,1A.77.77,0,0,1,57.81,155.22Zm57.75-1.8a.77.77,0,0,1-.69-.45.76.76,0,0,1,.38-1l1-.46a.76.76,0,1,1,.66,1.37l-1,.47A.88.88,0,0,1,115.56,153.42Zm-62.78-.35a.78.78,0,0,1-.33-.07l-1-.48a.76.76,0,0,1,.66-1.36l1,.47a.76.76,0,0,1-.32,1.44Zm67.66-2.1a.75.75,0,0,1-.67-.4.77.77,0,0,1,.3-1L121,149a.76.76,0,1,1,.75,1.32l-1,.54A.77.77,0,0,1,120.44,151Zm-72.52-.41a.75.75,0,0,1-.38-.1l-1-.55a.76.76,0,0,1,.77-1.31l.94.54a.76.76,0,0,1-.37,1.42Zm77.2-2.39a.76.76,0,0,1-.41-1.4l.9-.59a.76.76,0,0,1,1,.21.75.75,0,0,1-.21,1.05c-.3.21-.61.41-.92.61A.78.78,0,0,1,125.12,148.17Zm-81.87-.46a.83.83,0,0,1-.42-.13l-.91-.62a.76.76,0,1,1,.85-1.25l.9.6a.76.76,0,0,1-.42,1.4ZM129.59,145a.74.74,0,0,1-.6-.3.75.75,0,0,1,.14-1.06L130,143a.76.76,0,0,1,1.07.13.74.74,0,0,1-.14,1.06l-.87.67A.74.74,0,0,1,129.59,145Zm-90.78-.52a.72.72,0,0,1-.46-.16l-.87-.68a.76.76,0,0,1-.12-1.07.75.75,0,0,1,1.06-.12l.86.67a.75.75,0,0,1,.13,1.06A.74.74,0,0,1,38.81,144.52Zm95-2.93a.78.78,0,0,1-.58-.26.76.76,0,0,1,.08-1.07l.8-.72a.76.76,0,1,1,1,1.13l-.82.73A.76.76,0,0,1,133.83,141.59ZM34.61,141a.73.73,0,0,1-.5-.19l-.82-.75a.76.76,0,1,1,1-1.11l.8.72a.77.77,0,0,1,.06,1.08A.79.79,0,0,1,34.61,141Zm103.19-3.18a.75.75,0,0,1-.54-1.29c.25-.26.51-.51.75-.77a.76.76,0,0,1,1.08,0,.77.77,0,0,1,0,1.08l-.77.79A.75.75,0,0,1,137.8,137.84Zm-107.12-.61a.75.75,0,0,1-.55-.24l-.76-.8a.76.76,0,1,1,1.11-1l.75.78a.76.76,0,0,1,0,1.07A.74.74,0,0,1,30.68,137.23Zm110.82-3.41a.75.75,0,0,1-.5-.19.76.76,0,0,1-.08-1.07l.7-.82a.74.74,0,0,1,1.06-.1.75.75,0,0,1,.1,1.07l-.71.84A.74.74,0,0,1,141.5,133.82ZM27,133.16a.76.76,0,0,1-.58-.27l-.7-.86a.76.76,0,0,1,1.18-.95l.69.83a.77.77,0,0,1-.59,1.25Zm117.86-3.63a.76.76,0,0,1-.61-1.21l.64-.87a.74.74,0,0,1,1.05-.18.76.76,0,0,1,.18,1.06c-.21.3-.43.6-.65.89A.74.74,0,0,1,144.89,129.53Zm-121.2-.69a.77.77,0,0,1-.62-.31l-.63-.9a.76.76,0,1,1,1.24-.87l.63.88a.77.77,0,0,1-.18,1.06A.72.72,0,0,1,23.69,128.84ZM148,125a.87.87,0,0,1-.41-.11.77.77,0,0,1-.24-1.05c.2-.31.39-.61.57-.92a.76.76,0,1,1,1.3.79l-.58.94A.76.76,0,0,1,148,125Zm-127.3-.72a.75.75,0,0,1-.64-.36l-.57-.94a.76.76,0,0,1,1.3-.78l.56.93a.75.75,0,0,1-.25,1A.71.71,0,0,1,20.67,124.29Zm130-4a.73.73,0,0,1-.35-.09.77.77,0,0,1-.32-1c.17-.32.34-.64.5-1a.77.77,0,0,1,1-.33.76.76,0,0,1,.33,1c-.17.33-.34.66-.52,1A.76.76,0,0,1,150.7,120.28ZM18,119.54a.75.75,0,0,1-.67-.41c-.17-.33-.34-.65-.5-1a.75.75,0,0,1,.34-1,.76.76,0,0,1,1,.34c.16.32.32.64.49,1a.77.77,0,0,1-.33,1A.85.85,0,0,1,18,119.54Zm135.1-4.18a.82.82,0,0,1-.3-.07.75.75,0,0,1-.39-1l.43-1a.76.76,0,0,1,1.4.6l-.44,1A.77.77,0,0,1,153.09,115.36Zm-137.42-.75a.78.78,0,0,1-.7-.46l-.42-1a.76.76,0,1,1,1.4-.57l.42,1a.77.77,0,0,1-.4,1A.8.8,0,0,1,15.67,114.61Zm139.44-4.34a.77.77,0,0,1-.71-1c.12-.35.24-.69.35-1a.76.76,0,0,1,1-.48.77.77,0,0,1,.48,1l-.36,1A.77.77,0,0,1,155.11,110.27Zm-141.4-.75A.77.77,0,0,1,13,109L12.64,108a.76.76,0,0,1,1.45-.47l.34,1a.76.76,0,0,1-.47,1A.73.73,0,0,1,13.71,109.52Zm143-4.47a.69.69,0,0,1-.2,0,.75.75,0,0,1-.53-.93c.09-.35.19-.69.27-1a.77.77,0,0,1,.93-.55.75.75,0,0,1,.54.92c-.09.36-.18.72-.28,1.07A.76.76,0,0,1,156.75,105.05Zm-144.62-.76a.76.76,0,0,1-.73-.56c-.09-.36-.19-.72-.27-1.08a.76.76,0,0,1,1.47-.36l.27,1a.78.78,0,0,1-.54.93ZM158,99.73h-.14a.76.76,0,0,1-.61-.89l.2-1.07A.76.76,0,1,1,159,98l-.21,1.08A.76.76,0,0,1,158,99.73ZM10.94,99a.77.77,0,0,1-.75-.62L10,97.25A.76.76,0,0,1,11.5,97l.19,1.06a.77.77,0,0,1-.61.89Zm147.91-4.62h-.09a.75.75,0,0,1-.66-.84l.12-1.08a.74.74,0,0,1,.83-.67.76.76,0,0,1,.68.83l-.13,1.1A.76.76,0,0,1,158.85,94.34Zm-148.7-.79a.75.75,0,0,1-.76-.67c0-.37-.08-.73-.11-1.1a.76.76,0,1,1,1.51-.14c0,.35.07.71.11,1.07a.76.76,0,0,1-.67.84Zm149.16-4.66h0a.76.76,0,0,1-.72-.79l0-1.08a.77.77,0,0,1,.76-.74h0a.77.77,0,0,1,.73.79l0,1.1A.76.76,0,0,1,159.31,88.89ZM9.74,88.11A.75.75,0,0,1,9,87.38c0-.37,0-.74,0-1.11a.77.77,0,0,1,.75-.77h0a.76.76,0,0,1,.76.74l0,1.08a.76.76,0,0,1-.73.79Zm149.63-4.68a.76.76,0,0,1-.76-.74l0-1.08a.76.76,0,1,1,1.51-.06c0,.37,0,.73,0,1.1a.76.76,0,0,1-.74.78ZM9.74,82.65h0A.75.75,0,0,1,9,81.86c0-.37,0-.74,0-1.1a.76.76,0,0,1,1.51.07c0,.36,0,.72,0,1.08A.77.77,0,0,1,9.74,82.65ZM159,78a.76.76,0,0,1-.76-.68l-.11-1.08a.76.76,0,0,1,1.51-.17l.11,1.1a.76.76,0,0,1-.68.83ZM10.13,77.2h-.08a.76.76,0,0,1-.68-.83c0-.37.09-.74.13-1.1a.76.76,0,0,1,1.51.19c0,.35-.09.71-.13,1.07A.76.76,0,0,1,10.13,77.2Zm148.18-4.63a.77.77,0,0,1-.75-.63l-.19-1.07A.75.75,0,0,1,158,70a.76.76,0,0,1,.88.6l.2,1.09a.76.76,0,0,1-.62.88Zm-147.4-.78h-.13a.75.75,0,0,1-.61-.88l.2-1.09a.76.76,0,1,1,1.49.3l-.2,1.06A.76.76,0,0,1,10.91,71.79Zm146.27-4.57a.75.75,0,0,1-.73-.58l-.27-1a.76.76,0,1,1,1.47-.39l.27,1.07a.76.76,0,0,1-.55.92ZM12.09,66.46l-.19,0a.75.75,0,0,1-.54-.92c.09-.36.19-.71.28-1.07a.78.78,0,0,1,.94-.53.76.76,0,0,1,.53.93c-.1.35-.19.7-.28,1A.77.77,0,0,1,12.09,66.46ZM155.67,62a.75.75,0,0,1-.72-.52c-.11-.34-.23-.68-.35-1a.78.78,0,0,1,.47-1,.76.76,0,0,1,1,.47c.12.35.24.7.35,1a.75.75,0,0,1-.48,1A.67.67,0,0,1,155.67,62Zm-142-.75a.67.67,0,0,1-.24,0,.76.76,0,0,1-.48-1l.37-1a.75.75,0,0,1,1-.45.76.76,0,0,1,.46,1l-.36,1A.75.75,0,0,1,13.66,61.22Zm140.12-4.36a.76.76,0,0,1-.7-.47l-.42-1a.76.76,0,0,1,1.39-.6c.15.34.29.68.43,1a.76.76,0,0,1-.7,1ZM15.62,56.11a.8.8,0,0,1-.3-.06.77.77,0,0,1-.4-1c.14-.34.29-.67.44-1a.76.76,0,0,1,1-.39.75.75,0,0,1,.39,1c-.15.33-.29.67-.43,1A.77.77,0,0,1,15.62,56.11Zm135.9-4.21a.77.77,0,0,1-.68-.42l-.49-1a.76.76,0,1,1,1.35-.7l.5,1a.76.76,0,0,1-.34,1A.72.72,0,0,1,151.52,51.9ZM17.94,51.16a.76.76,0,0,1-.67-1.11l.51-1a.76.76,0,0,1,1-.31.75.75,0,0,1,.31,1l-.5,1A.77.77,0,0,1,17.94,51.16Zm131-4a.75.75,0,0,1-.65-.37l-.56-.92A.76.76,0,1,1,149,45l.57.94a.75.75,0,0,1-.26,1A.79.79,0,0,1,148.9,47.11ZM20.62,46.39a.79.79,0,0,1-.39-.11A.77.77,0,0,1,20,45.23l.59-.94a.76.76,0,0,1,1.28.81l-.57.92A.75.75,0,0,1,20.62,46.39Zm125.32-3.86a.75.75,0,0,1-.62-.33l-.63-.88a.76.76,0,0,1,1.23-.89l.64.9a.77.77,0,0,1-.62,1.2Zm-122.3-.7a.79.79,0,0,1-.44-.14A.77.77,0,0,1,23,40.63l.65-.9a.76.76,0,1,1,1.22.91l-.63.87A.75.75,0,0,1,23.64,41.83Zm119-3.66a.77.77,0,0,1-.59-.28l-.69-.84a.76.76,0,1,1,1.16-1c.24.28.48.56.71.85a.77.77,0,0,1-.11,1.07A.78.78,0,0,1,142.65,38.17ZM27,37.5a.83.83,0,0,1-.49-.17.76.76,0,0,1-.09-1.07c.23-.29.47-.57.71-.85a.77.77,0,0,1,1.07-.08.75.75,0,0,1,.08,1.07l-.7.83A.74.74,0,0,1,27,37.5Zm112.07-3.44a.75.75,0,0,1-.55-.24c-.25-.27-.49-.53-.75-.79A.76.76,0,1,1,138.84,32c.26.26.51.53.77.8a.76.76,0,0,1,0,1.07A.73.73,0,0,1,139.05,34.06ZM30.63,33.43a.77.77,0,0,1-.53-.21.76.76,0,0,1,0-1.07c.25-.27.51-.53.77-.8a.76.76,0,0,1,1.08,1.07l-.76.78A.78.78,0,0,1,30.63,33.43Zm104.54-3.22a.74.74,0,0,1-.52-.2l-.8-.72a.77.77,0,0,1-.06-1.08.76.76,0,0,1,1.07-.05l.82.74a.76.76,0,0,1,0,1.07A.77.77,0,0,1,135.17,30.21ZM34.55,29.63a.76.76,0,0,1-.5-1.32l.82-.73a.76.76,0,0,1,1.07.07.75.75,0,0,1-.07,1.07l-.81.72A.75.75,0,0,1,34.55,29.63Zm96.47-3a.77.77,0,0,1-.48-.16l-.85-.67a.76.76,0,1,1,.93-1.2l.87.68a.76.76,0,0,1-.47,1.35Zm-92.27-.53a.74.74,0,0,1-.6-.29.76.76,0,0,1,.13-1.07l.88-.67a.76.76,0,0,1,1.06.15.77.77,0,0,1-.15,1.07l-.86.65A.74.74,0,0,1,38.75,26.13Zm87.86-2.71a.72.72,0,0,1-.42-.13l-.9-.61a.75.75,0,1,1,.83-1.26L127,22a.76.76,0,0,1,.2,1.06A.78.78,0,0,1,126.61,23.42Zm-83.43-.48a.76.76,0,0,1-.64-.33.77.77,0,0,1,.22-1.06l.92-.6a.75.75,0,0,1,1,.23.77.77,0,0,1-.23,1.05l-.9.59A.81.81,0,0,1,43.18,22.94ZM122,20.51a.77.77,0,0,1-.39-.11c-.31-.18-.62-.36-.94-.53a.78.78,0,0,1-.29-1,.77.77,0,0,1,1-.29l1,.55a.76.76,0,0,1-.38,1.42Zm-74.16-.42a.76.76,0,0,1-.38-1.42l1-.54a.78.78,0,0,1,1,.3.77.77,0,0,1-.3,1L48.2,20A.74.74,0,0,1,47.83,20.09Zm69.33-2.15a.81.81,0,0,1-.34-.08l-1-.47a.76.76,0,1,1,.64-1.37l1,.47a.77.77,0,0,1,.35,1A.76.76,0,0,1,117.16,17.94Zm-64.49-.36a.76.76,0,0,1-.32-1.45l1-.46A.76.76,0,1,1,54,17.05l-1,.46A.71.71,0,0,1,52.67,17.58Zm59.48-1.85a.71.71,0,0,1-.28-.06l-1-.39a.76.76,0,0,1,.54-1.42l1,.4a.77.77,0,0,1,.43,1A.78.78,0,0,1,112.15,15.73Zm-54.47-.3A.75.75,0,0,1,57.41,14l1-.4a.77.77,0,0,1,1,.46A.76.76,0,0,1,59,15l-1,.38A.69.69,0,0,1,57.68,15.43ZM107,13.89a.66.66,0,0,1-.23,0l-1-.31a.77.77,0,0,1-.51-.95.75.75,0,0,1,.94-.51l1.06.33a.76.76,0,0,1-.23,1.48Zm-44.14-.24a.76.76,0,0,1-.22-1.48l1.06-.31a.75.75,0,0,1,.94.52.77.77,0,0,1-.52.94l-1,.3A.83.83,0,0,1,62.85,13.65Zm38.87-1.21-.17,0-1.06-.24a.76.76,0,1,1,.33-1.48l1.08.24a.76.76,0,0,1-.18,1.5Zm-33.59-.18a.76.76,0,0,1-.17-1.5L69,10.53a.76.76,0,0,1,.9.59.75.75,0,0,1-.59.89l-1,.23A.52.52,0,0,1,68.13,12.26Zm28.23-.88h-.12l-1.07-.16a.76.76,0,1,1,.22-1.5l1.09.16a.76.76,0,0,1-.12,1.51ZM73.5,11.26a.76.76,0,0,1-.11-1.51l1.09-.15a.77.77,0,0,1,.86.65.76.76,0,0,1-.66.85l-1.07.15Zm17.44-.54h-.06l-1.08-.09a.76.76,0,0,1-.71-.81.78.78,0,0,1,.81-.7L91,9.21a.76.76,0,0,1-.07,1.51Zm-12-.06a.76.76,0,0,1-.05-1.52L80,9.07a.76.76,0,1,1,.09,1.51L79,10.66Zm6.55-.2H84.39a.76.76,0,0,1,0-1.52h1.1a.76.76,0,0,1,0,1.52Z" transform="translate(-0.59 -0.59)"/><path class="aaa6a82b-bb76-4aee-b7b5-ac0895ad6bdd" d="M74.26,120H69.15l-2-5.29H57.8L55.88,120h-5L60,96.68h5Zm-8.66-9.22-3.21-8.64-3.14,8.64Z" transform="translate(-0.59 -0.59)"/><path class="aaa6a82b-bb76-4aee-b7b5-ac0895ad6bdd" d="M77.7,120V96.68h7.55a27.56,27.56,0,0,1,5.59.35,6.11,6.11,0,0,1,3.36,2.28,7.23,7.23,0,0,1,1.35,4.54,7.62,7.62,0,0,1-.78,3.61,6.36,6.36,0,0,1-2,2.29,6.74,6.74,0,0,1-2.44,1.11,27.14,27.14,0,0,1-4.88.33H82.4V120Zm4.7-19.36v6.61H85a12.39,12.39,0,0,0,3.72-.36,3.07,3.07,0,0,0,2-3,3,3,0,0,0-.75-2.1,3.28,3.28,0,0,0-1.89-1,23.38,23.38,0,0,0-3.38-.16Z" transform="translate(-0.59 -0.59)"/><path class="aaa6a82b-bb76-4aee-b7b5-ac0895ad6bdd" d="M100.35,120V96.68h7.55a27.56,27.56,0,0,1,5.59.35,6.11,6.11,0,0,1,3.36,2.28,7.23,7.23,0,0,1,1.35,4.54,7.62,7.62,0,0,1-.78,3.61,6.36,6.36,0,0,1-2,2.29,6.74,6.74,0,0,1-2.44,1.11,27.14,27.14,0,0,1-4.88.33h-3.06V120Zm4.71-19.36v6.61h2.57a12.39,12.39,0,0,0,3.72-.36,3.07,3.07,0,0,0,2-3,3,3,0,0,0-.75-2.1,3.22,3.22,0,0,0-1.89-1,23.38,23.38,0,0,0-3.38-.16Z" transform="translate(-0.59 -0.59)"/><polygon class="ab790726-2c80-46d0-81d6-792e8ddf26ff" points="124.17 86.04 115.75 74.28 110.84 81.08 114.36 86.04 124.17 86.04"/><path class="ab790726-2c80-46d0-81d6-792e8ddf26ff" d="M26.51,58.37H53.05v7H44.14V86.63H35.41V65.35h-8.9Z" transform="translate(-0.59 -0.59)"/><path class="ab790726-2c80-46d0-81d6-792e8ddf26ff" d="M77.61,82H67.7l-1.38,4.67H57.41L68,58.37h9.53L88.16,86.63H79ZM75.8,75.85,72.68,65.7,69.59,75.85Z" transform="translate(-0.59 -0.59)"/><path class="ab790726-2c80-46d0-81d6-792e8ddf26ff" d="M133.83,58.37h8.74V86.63h-8.74Z" transform="translate(-0.59 -0.59)"/><polygon class="ab790726-2c80-46d0-81d6-792e8ddf26ff" points="123.34 57.78 113.82 57.78 93.45 86.04 103.2 86.04 123.34 57.78"/><polygon class="ab790726-2c80-46d0-81d6-792e8ddf26ff" points="103.96 57.78 94.34 57.78 101.81 68.48 106.67 61.73 103.96 57.78"/></svg>